<svg height="200pt" preserveAspectRatio="xMidYMid meet" viewBox="0 0 200 200" width="200pt" xmlns="http://www.w3.org/2000/svg"><g transform="matrix(.1 0 0 -.1 0 200)"><path d="m973 1973c15-2 39-2 55 0 15 2 2 4-28 4s-43-2-27-4z"/><path d="m650 1691c-97-21-183-91-226-183-38-82-41-197-7-270 40-88 126-161 226-192 14-4 17-17 17-68l-1-63-62-36c-74-43-130-117-152-199-20-75-19-108 7-187 57-176 256-268 433-202 75 28 156 110 185 185 29 78 27 177-4 247-40 92-129 173-208 191-26 6-28 10-28 55 0 27-3 56-6 65-4 11 7 21 40 37 100 46 186 181 186 289v48l60 24c33 12 60 28 60 34s-7 29-16 50c-9 22-20 49-25 61l-8 22-59-24-59-24-49 47c-27 26-71 58-98 70-52 25-149 36-206 23zm137-190c107-49 110-210 5-269-49-27-91-28-143-2-52 27-79 72-79 134 0 119 107 187 217 137zm43-766c50-26 84-80 84-134 0-90-61-153-149-153-119 0-189 116-135 222 35 69 132 100 200 65z"/><path d="m1350 1284c-25-9-67-32-93-50l-48-35-59 33c-38 20-63 29-68 23s-23-35-40-66l-31-56 60-34 60-34-6-56c-12-100 32-217 106-286 13-12 49-34 79-49 47-24 67-28 140-29 111 0 170 25 243 105 68 73 92 141 85 244-8 116-76 218-182 273-65 33-180 41-246 17zm205-204c43-42 60-95 46-148-6-21-26-53-46-72-30-29-43-34-92-38-48-3-64 0-92 20-42 28-71 81-71 128s29 100 71 128c28 20 44 23 92 20 49-4 62-9 92-38z"/><path d="m111 1114c0-11 3-14 6-6 3 7 2 16-1 19-3 4-6-2-5-13z"/><path d="m23 1000c0-25 2-35 4-22 2 12 2 32 0 45-2 12-4 2-4-23z"/><path d="m1973 1000c0-25 2-35 4-22 2 12 2 32 0 45-2 12-4 2-4-23z"/><path d="m923 23c9-2 25-2 35 0 9 3 1 5-18 5s-27-2-17-5z"/><path d="m1053 23c9-2 23-2 30 0 6 3-1 5-18 5-16 0-22-2-12-5z"/></g></svg>